<svg xmlns="http://www.w3.org/2000/svg" viewBox="0 0 500 500"><g id="freepik--background-simple--inject-113"><path d="M409,78l-2.12-3.45C389,45.45,356.74,27.93,322.7,30.06a90.67,90.67,0,0,0-13,1.76c-31,6.55-57.89,29.66-69.05,59.26-6.57,17.41-8.4,37.46-20.86,51.28-16.22,18-43.75,18.54-67.95,17.8s-51.75-.11-67.89,17.94c-10.1,11.31-13.32,27.39-12.5,42.54,2.16,40.09,30.45,75.94,66.43,93.76S216.19,333.81,255.57,326c55.16-11,107.62-41.13,139.16-87.71S434.24,128.23,409,78Z" style="fill:#f5f5f5"></path><path d="M188.07,88.8c-6-6.81-18.54-10.56-27.64-9.53h0A26.63,26.63,0,0,0,134.09,113c3.38,12.26,15.42,20.67,27.91,23.06,8,1.52,16.8.82,23.35-4s9.79-12.7,10.66-20.62C197,102.42,194.06,95.61,188.07,88.8Z" style="fill:#f5f5f5"></path></g></svg>
